<?xml version="1.0" standalone="no"?>
<!DOCTYPE svg PUBLIC "-//W3C//DTD SVG 20010904//EN"
 "http://www.w3.org/TR/2001/REC-SVG-20010904/DTD/svg10.dtd">
<svg version="1.0" xmlns="http://www.w3.org/2000/svg"
 width="1960.000000pt" height="1960.000000pt" viewBox="0 0 1960.000000 1960.000000"
 preserveAspectRatio="xMidYMid meet">

<g transform="translate(0.000000,1960.000000) scale(0.100000,-0.100000)"
fill="#000000" stroke="none">
<path d="M9360 18769 c-1805 -91 -3510 -708 -4950 -1790 -201 -151 -379 -296
-580 -473 -144 -126 -552 -532 -693 -689 -933 -1034 -1617 -2275 -1986 -3601
-590 -2120 -386 -4383 573 -6351 1324 -2717 3943 -4602 6921 -4980 1756 -223
3506 60 5073 820 2727 1323 4618 3946 4997 6930 224 1763 -61 3515 -829 5090
-1112 2282 -3150 3999 -5580 4701 -949 274 -1966 393 -2946 343z m840 -639
c1852 -97 3558 -791 4950 -2014 161 -142 469 -445 619 -611 714 -786 1253
-1674 1614 -2655 308 -838 476 -1741 490 -2638 1 -110 -1 -152 -10 -152 -6 0
-13 -3 -16 -7 -2 -5 -3 -3 -1 4 1 6 -6 13 -17 16 -10 3 -16 1 -13 -4 3 -5 -11
-7 -33 -5 -26 4 -44 0 -58 -12 -11 -9 -14 -10 -7 -2 20 23 14 30 -18 24 -19
-4 -30 -2 -30 5 0 6 -5 11 -11 11 -5 0 -8 -4 -4 -9 3 -5 1 -12 -5 -16 -5 -3
-10 -1 -10 6 0 8 -5 6 -13 -5 -11 -15 -17 -15 -42 -5 -17 7 -34 11 -40 9 -5
-1 -20 -2 -32 -2 -13 1 -23 -4 -23 -11 0 -8 -4 -7 -10 3 -8 12 -10 12 -10 1 0
-10 -3 -11 -14 -2 -7 6 -21 9 -29 5 -23 -8 -25 10 -32 246 -39 1386 -475 2757
-1250 3930 -1091 1651 -2784 2816 -4706 3239 -1199 263 -2462 232 -3643 -90
-2424 -661 -4389 -2509 -5193 -4884 -255 -754 -396 -1567 -404 -2327 0 -74 -5
-128 -11 -128 -5 0 -7 4 -3 9 3 6 -4 9 -15 8 -11 -1 -20 -8 -21 -17 0 -10 -3
-9 -8 5 -5 11 -7 23 -4 27 2 4 -3 5 -12 2 -12 -5 -13 -10 -6 -17 18 -18 12
-28 -9 -17 -11 6 -24 9 -28 6 -4 -3 -14 0 -22 6 -12 8 -11 9 5 4 19 -6 19 -6
1 8 -14 12 -22 12 -36 3 -10 -6 -16 -15 -14 -19 3 -5 10 -5 16 -2 7 4 8 2 4
-4 -9 -15 -36 -3 -36 17 0 13 -2 14 -9 2 -8 -12 -13 -12 -24 -3 -11 10 -17 9
-27 -3 -13 -15 -35 -11 -25 6 4 5 1 9 -4 9 -6 0 -11 -6 -11 -14 0 -8 -11 -13
-29 -12 -16 1 -27 4 -25 7 2 4 -7 9 -21 11 -13 3 -23 1 -22 -5 1 -5 -4 -12
-12 -15 -9 -3 -12 0 -9 10 4 8 0 15 -8 15 -7 0 -10 -5 -7 -10 3 -5 0 -7 -8 -5
-8 3 -13 11 -11 17 1 7 -2 10 -7 6 -6 -3 -7 -13 -4 -23 3 -9 3 -14 -2 -10 -10
10 -7 325 6 518 71 1096 338 2100 814 3065 230 467 467 852 776 1265 757 1010
1735 1827 2857 2389 1233 617 2642 912 4012 841z m-65 -2220 c477 -30 914
-110 1353 -246 1272 -395 2386 -1238 3149 -2384 879 -1321 1222 -2954 953
-4547 -383 -2269 -1981 -4138 -4102 -4797 -894 -277 -1862 -330 -2773 -150
-1417 280 -2684 1091 -3567 2284 -1006 1359 -1414 3098 -1128 4797 346 2052
1687 3789 3545 4591 799 345 1715 506 2570 452z"/>
<path d="M9605 15434 c-1199 -54 -2311 -497 -3230 -1285 -154 -132 -442 -420
-574 -574 -679 -791 -1133 -1764 -1305 -2795 -205 -1223 -24 -2465 519 -3565
390 -790 963 -1483 1658 -2002 676 -505 1459 -842 2272 -977 968 -161 1959
-47 2860 329 1539 642 2726 2013 3180 3670 282 1032 282 2098 0 3130 -331
1209 -1058 2282 -2048 3022 -703 525 -1522 868 -2371 993 -280 41 -710 65
-961 54z"/>
</g>
</svg>
